<svg width="34" height="34" viewBox="0 0 34 34" fill="none" xmlns="http://www.w3.org/2000/svg">
<rect width="34" height="34" rx="7" fill="#EC8392"/>
<path d="M20.4526 24.9954C19.4729 24.9439 18.19 24.3438 16.5287 23.2089L16.4977 23.1884L16.4691 23.2089C14.8078 24.3446 13.5256 24.9446 12.5445 24.9962L12.4068 25C10.2812 25 10.0103 22.9973 11.0774 19.5046L11.1192 19.3695L11.0418 19.3126C6.35576 15.7942 7.13729 13.359 13.018 13.1936L13.1743 13.1898L13.2633 12.9425C14.1795 10.4163 15.1405 9.08497 16.3794 9.00379L16.5001 9C17.7954 9 18.7881 10.3352 19.736 12.9425L19.8242 13.1898L19.9821 13.1936C25.8629 13.359 26.6444 15.7942 21.9576 19.3119L21.8786 19.3688L21.9212 19.5038C22.9658 22.9267 22.7259 24.9181 20.7172 24.9962L20.5911 24.9985L20.4526 24.9954Z" fill="white"/>
</svg>
