<svg width="22" height="24" viewBox="0 0 22 24" fill="none" xmlns="http://www.w3.org/2000/svg">
<path d="M11.0059 0C4.92693 0 5.97164e-08 5.37222 5.97164e-08 11.9994C-0.000150507 13.5754 0.284423 15.136 0.837469 16.592C1.39052 18.0481 2.2012 19.3711 3.22322 20.4855C4.24525 21.5999 5.45859 22.4838 6.79396 23.0868C8.12933 23.6899 9.56056 24.0002 11.0059 24C17.0826 24 22.0107 18.6278 22.0107 11.9994C22.0107 5.37222 17.0826 0 11.0059 0ZM12.033 4.33227C13.106 4.33227 13.4212 5.01099 13.4212 5.7872C13.4212 6.7559 12.7105 7.6521 11.4965 7.6521C10.4809 7.6521 9.99715 7.09588 10.027 6.17468C10.027 5.39847 10.6219 4.33227 12.033 4.33227ZM9.28413 19.1865C8.55048 19.1865 8.01514 18.7003 8.52755 16.5691L9.36781 12.7881C9.5134 12.1831 9.53747 11.9406 9.36781 11.9406C9.14886 11.9406 8.19626 12.3581 7.63456 12.7706L7.26888 12.1169C9.05143 10.4932 11.1011 9.54075 11.978 9.54075C12.7117 9.54075 12.8332 10.4857 12.4675 11.9406L11.5046 15.9154C11.3338 16.6179 11.4071 16.8604 11.5779 16.8604C11.798 16.8604 12.5179 16.5704 13.2264 15.9617L13.6413 16.5691C11.9069 18.459 10.0166 19.1865 9.28413 19.1865Z" fill="#6B7280"/>
</svg>
