<svg width="18" height="18" viewBox="0 0 18 18" fill="none" xmlns="http://www.w3.org/2000/svg">
<path fill-rule="evenodd" clip-rule="evenodd" d="M9.1429 17.3045C13.7674 17.3045 17.5163 13.5556 17.5163 8.93111C17.5163 4.30662 13.7674 0.557739 9.1429 0.557739C4.51842 0.557739 0.769531 4.30662 0.769531 8.93111C0.769531 13.5556 4.51842 17.3045 9.1429 17.3045ZM13.4174 9.53031C13.6116 9.77794 13.7562 10.0431 13.8507 10.3257C13.9449 10.6086 13.9904 10.8915 13.9904 11.1741C13.9904 11.7801 13.8521 12.2979 13.58 12.727C13.3076 13.1565 12.9453 13.5073 12.5011 13.78C12.0566 14.0527 11.5432 14.2523 10.9766 14.3784C10.6866 14.443 10.4152 14.4908 10.1122 14.5223V15.5417H8.17314V14.4986C7.90045 14.4611 7.59623 14.4122 7.32703 14.3442C6.72696 14.1927 6.22004 13.9642 5.7758 13.651C5.3313 13.3381 4.97577 12.9439 4.70918 12.4539C4.454 11.9854 4.31599 11.4396 4.29494 10.8198H6.37693C6.38705 11.174 6.45655 11.5074 6.60135 11.7797C6.75684 12.0728 6.96578 12.2979 7.24361 12.4846C7.50991 12.664 7.83983 12.7962 8.17311 12.8824V9.35321C8.04995 9.32259 7.91472 9.29085 7.77458 9.25796C7.6389 9.22611 7.49861 9.19318 7.3602 9.15914C6.84904 9.03794 6.43934 8.87881 6.10051 8.68191C5.76141 8.48495 5.492 8.26527 5.29194 8.02287C5.09197 7.78046 4.94987 7.52294 4.86649 7.25023C4.78317 6.97748 4.74054 6.69984 4.74054 6.41697C4.74054 5.8716 4.86358 5.39951 5.11357 5.00042C5.36359 4.60158 5.69024 4.27084 6.10142 4.00804C6.51236 3.74551 6.97126 3.55118 7.49367 3.42478C7.71418 3.37151 7.96105 3.33017 8.17314 3.29936V2.32055H10.1122V3.30582C10.3849 3.3418 10.596 3.39524 10.8349 3.45878C11.3849 3.6053 11.884 3.82864 12.3006 4.12146C12.7173 4.41456 13.0478 4.7829 13.2923 5.21208C13.5149 5.6034 13.636 6.03899 13.6558 6.5702H11.5599C11.4804 5.95046 11.2092 5.49406 10.7765 5.22728C10.5743 5.1025 10.3849 4.99018 10.1122 4.91948V8.03951C10.2586 8.07384 10.3961 8.10783 10.5321 8.14142C10.6493 8.17039 10.7653 8.19906 10.8848 8.22741C10.9951 8.25365 11.0972 8.27778 11.1903 8.29978C11.4022 8.34982 11.5675 8.38887 11.6757 8.41681C12.0645 8.52807 12.4033 8.67952 12.6923 8.87129C12.9812 9.06326 13.2228 9.28294 13.4174 9.53031ZM7.20204 7.0911C7.44864 7.2965 7.80956 7.45424 8.17314 7.5647V4.86547C7.96105 4.91189 7.72897 4.98201 7.54172 5.07612C7.3306 5.18216 7.16905 5.32608 7.03028 5.5079C6.89121 5.68975 6.81807 5.91696 6.81807 6.18968C6.81807 6.57365 6.94084 6.87405 7.20204 7.0911ZM11.3423 12.5074C11.5424 12.3558 11.6866 12.1816 11.7757 11.9847C11.8645 11.7877 11.9051 11.5884 11.905 11.3862C11.905 10.9722 11.7983 10.6666 11.5927 10.4696C11.387 10.2727 11.1541 10.134 10.9099 10.053C10.663 9.97041 10.4152 9.8905 10.1122 9.81306V12.974C10.294 12.9507 10.4068 12.9192 10.5431 12.8785C10.8653 12.7826 11.1423 12.6588 11.3423 12.5074Z" fill="white"/>
</svg>
