<svg width="21" height="20" viewBox="0 0 21 20" fill="none" xmlns="http://www.w3.org/2000/svg">
<path d="M7.07901 2.12676C8.3081 1.36522 9.38085 1.67211 10.0253 2.16095C10.2895 2.36139 10.4216 2.46161 10.4994 2.46161C10.5771 2.46161 10.7092 2.36139 10.9734 2.16095C11.6179 1.67211 12.6906 1.36522 13.9197 2.12676C15.5328 3.1262 15.8978 6.42338 12.1771 9.20513C11.4684 9.73496 11.1141 9.9998 10.4994 9.9998C9.8846 9.9998 9.53027 9.73496 8.8216 9.20513C5.10098 6.42338 5.46597 3.1262 7.07901 2.12676Z" stroke="#1F9276" stroke-linecap="round"/>
<path d="M3.41602 11.6665H5.4117C5.65682 11.6665 5.89858 11.7218 6.11782 11.8278L7.81947 12.6512C8.03872 12.7573 8.28047 12.8124 8.5256 12.8124H9.39443C10.2348 12.8124 10.916 13.4717 10.916 14.2848C10.916 14.3177 10.8935 14.3466 10.8608 14.3556L8.74343 14.9411C8.36357 15.0461 7.95685 15.0095 7.60352 14.8385L5.78444 13.9584" stroke="#1F9276" stroke-linecap="round" stroke-linejoin="round"/>
<path d="M10.916 13.75L14.7433 12.5741C15.4218 12.3627 16.1553 12.6134 16.5803 13.2019C16.8876 13.6274 16.7624 14.2369 16.3148 14.4952L10.0518 18.1088C9.65343 18.3386 9.18343 18.3947 8.74535 18.2647L3.41602 16.6833" stroke="#1F9276" stroke-linecap="round" stroke-linejoin="round"/>
</svg>
