<svg width="24" height="24" viewBox="0 0 24 24" fill="none" xmlns="http://www.w3.org/2000/svg">
    <path
        d="M23.9999 8.47871V19.9987C23.9999 20.2639 23.8946 20.5183 23.707 20.7058C23.5195 20.8934 23.2651 20.9987 22.9999 20.9987C22.7347 20.9987 22.4803 20.8934 22.2928 20.7058C22.1053 20.5183 21.9999 20.2639 21.9999 19.9987V11.7507L14.5999 15.2867C13.8197 15.7473 12.9289 15.9871 12.0229 15.9807C11.0728 15.9822 10.1399 15.7269 9.32291 15.2417L1.94291 11.7287C1.36279 11.4168 0.876721 10.9553 0.535132 10.3921C0.193543 9.82889 0.00888329 9.18457 0.000312565 8.52595C-0.00825816 7.86733 0.159573 7.21841 0.486391 6.64654C0.813209 6.07466 1.28711 5.60066 1.85891 5.27372C1.88591 5.25772 1.91491 5.24272 1.94291 5.22872L9.39991 1.67072C10.205 1.20838 11.1187 0.968843 12.047 0.976752C12.9754 0.984661 13.8848 1.23973 14.6819 1.71572L22.0569 5.22872C22.6388 5.5507 23.1252 6.02101 23.4664 6.59184C23.8077 7.16268 23.9918 7.81369 23.9999 8.47871ZM12.0219 17.9787C10.7425 17.9816 9.48504 17.6462 8.37691 17.0067L3.99991 14.9177V17.6177C4.00051 18.6852 4.34228 19.7246 4.97534 20.5842C5.6084 21.4437 6.49962 22.0785 7.51891 22.3957C8.97524 22.8139 10.4849 23.017 11.9999 22.9987C13.5152 23.0157 15.0248 22.8112 16.4809 22.3917C17.5002 22.0745 18.3914 21.4397 19.0245 20.5802C19.6575 19.7206 19.9993 18.6812 19.9999 17.6137V14.9227L15.5409 17.0527C14.4706 17.6676 13.2563 17.9879 12.0219 17.9807V17.9787Z"
        fill="#4B5563" />
</svg>
    