<svg width="23" height="23" viewBox="0 0 23 23" fill="none" xmlns="http://www.w3.org/2000/svg">
<path d="M22.6344 21.8026H21.1782C21.3602 21.8026 21.5422 21.6206 21.5422 21.4385C21.5422 21.2565 21.3602 21.0745 21.1782 21.0745H16.8094C16.6274 21.0745 16.4454 21.2565 16.4454 21.4385C16.4454 21.6206 16.6274 21.8026 16.8094 21.8026H15.7901C15.608 21.2929 15.8265 20.8924 16.0085 20.7104C15.4624 20.0187 15.8265 19.4362 16.0085 19.2542C15.4624 18.5989 15.8265 17.98 16.0085 17.7979C15.4624 17.0698 15.8265 16.5237 16.0085 16.3417C15.4624 15.6864 15.8265 15.0675 16.0085 14.8855C15.244 13.9389 16.1541 13.0288 16.8094 13.0652H17.9016V11.973C17.9016 8.3688 15.426 5.27429 11.931 4.50977C11.6762 4.87383 11.4214 4.94664 11.3485 4.98304V6.14803C11.3485 6.33006 11.1665 6.51209 10.9845 6.51209C10.8025 6.51209 10.6204 6.33006 10.6204 6.14803V5.05586H9.89231V7.60427C9.89231 7.7863 9.71028 7.96833 9.52825 7.96833C9.34622 7.96833 9.16419 7.7863 9.16419 7.60427V4.98304C9.16419 4.98304 8.80013 4.87383 8.58169 4.50977C5.08672 5.27429 2.61112 8.3688 2.61112 11.973V16.2689C2.61112 18.0892 2.39268 19.9459 1.95581 21.8026H0.790817C0.608788 21.8026 0.426758 21.9846 0.426758 22.1667C0.426758 22.3487 0.608788 22.5307 0.790817 22.5307H22.6344C22.8164 22.5307 22.9985 22.3487 22.9985 22.1667C22.9985 21.9846 22.8164 21.8026 22.6344 21.8026ZM4.10376 8.76926C4.79547 7.45865 5.88765 6.36647 7.16186 5.74757C7.34389 5.63835 7.56233 5.74757 7.63514 5.89319C7.74436 6.07522 7.63514 6.29366 7.48951 6.36647C6.32452 6.94897 5.34156 7.89552 4.72266 9.09692C4.64985 9.20613 4.43141 9.35176 4.24938 9.24254C4.06735 9.20613 4.03095 8.95129 4.10376 8.76926ZM3.48486 10.4803C3.52126 10.2983 3.70329 10.1527 3.88532 10.1891C4.10376 10.2255 4.21298 10.4075 4.21298 10.5896C4.21298 10.7352 4.14017 11.2085 4.10376 11.3177C3.99454 11.6817 3.70329 11.6089 3.70329 11.6089C3.48486 11.5725 3.37564 11.3905 3.37564 11.2085C3.41205 11.0628 3.48486 10.5896 3.48486 10.4803ZM4.43141 21.0745H3.70329C3.52126 21.0745 3.33923 20.8924 3.33923 20.7104C3.33923 20.5284 3.52126 20.3464 3.70329 20.3464H4.43141C4.61344 20.3464 4.79547 20.5284 4.79547 20.7104C4.79547 20.8924 4.61344 21.0745 4.43141 21.0745ZM8.80013 21.0745H5.88765C5.70562 21.0745 5.52359 20.8924 5.52359 20.7104C5.52359 20.5284 5.70562 20.3464 5.88765 20.3464H8.80013C8.98216 20.3464 9.16419 20.5284 9.16419 20.7104C9.16419 20.8924 8.98216 21.0745 8.80013 21.0745ZM10.2564 13.7933C11.2757 13.7933 12.0767 14.5942 12.0767 15.6136C12.0767 16.4873 11.4578 17.2154 10.6204 17.3975V18.5261C10.6204 18.7081 10.4384 18.8901 10.2564 18.8901C10.0743 18.8901 9.89231 18.7081 9.89231 18.5261V17.3975C9.05497 17.2154 8.43607 16.4873 8.43607 15.6136C8.43607 15.4316 8.6181 15.2495 8.80013 15.2495C8.98216 15.2495 9.16419 15.4316 9.16419 15.6136C9.16419 16.2325 9.63747 16.7058 10.2564 16.7058C10.8753 16.7058 11.3485 16.2325 11.3485 15.6136C11.3485 14.9947 10.8753 14.5214 10.2564 14.5214C9.237 14.5214 8.43607 13.7205 8.43607 12.7011C8.43607 11.8274 9.05497 11.0992 9.89231 10.9172V9.78863C9.89231 9.6066 10.0743 9.42457 10.2564 9.42457C10.4384 9.42457 10.6204 9.6066 10.6204 9.78863V10.9172C11.4578 11.0992 12.0767 11.8274 12.0767 12.7011C12.0767 12.8831 11.8946 13.0652 11.7126 13.0652C11.5306 13.0652 11.3485 12.8831 11.3485 12.7011C11.3485 12.0822 10.8753 11.6089 10.2564 11.6089C9.63747 11.6089 9.16419 12.0822 9.16419 12.7011C9.16419 13.32 9.63747 13.7933 10.2564 13.7933Z" fill="white"/>
<path d="M21.1776 19.6182H16.8089C16.6268 19.6182 16.4448 19.8003 16.4448 19.9823C16.4448 20.1643 16.6268 20.3464 16.8089 20.3464H21.1776C21.3596 20.3464 21.5416 20.1643 21.5416 19.9823C21.5416 19.8003 21.3596 19.6182 21.1776 19.6182ZM21.1776 18.162H16.8089C16.6268 18.162 16.4448 18.344 16.4448 18.5261C16.4448 18.7081 16.6268 18.8901 16.8089 18.8901H21.1776C21.3596 18.8901 21.5416 18.7081 21.5416 18.5261C21.5416 18.344 21.3596 18.162 21.1776 18.162ZM21.1776 16.7058H16.8089C16.6268 16.7058 16.4448 16.8878 16.4448 17.0698C16.4448 17.2518 16.6268 17.4339 16.8089 17.4339H21.1776C21.3596 17.4339 21.5416 17.2518 21.5416 17.0698C21.5416 16.8878 21.3596 16.7058 21.1776 16.7058ZM21.1776 15.2495H16.8089C16.6268 15.2495 16.4448 15.4315 16.4448 15.6136C16.4448 15.7956 16.6268 15.9776 16.8089 15.9776H21.1776C21.3596 15.9776 21.5416 15.7956 21.5416 15.6136C21.5416 15.4315 21.3596 15.2495 21.1776 15.2495ZM16.4448 14.1573C16.4448 14.3394 16.6268 14.5214 16.8089 14.5214H21.1776C21.3596 14.5214 21.5416 14.3394 21.5416 14.1573C21.5416 13.9753 21.3596 13.7933 21.1776 13.7933H16.8089C16.6268 13.7933 16.4448 13.9753 16.4448 14.1573ZM9.7097 2.87149H10.8019L12.1489 1.05119C12.2581 0.941976 12.2217 0.687134 11.9669 0.687134H8.54471C8.32627 0.687134 8.25346 0.90557 8.36268 1.05119L9.7097 2.87149ZM9.52767 3.59961C9.34564 3.59961 9.16361 3.78164 9.16361 3.96367C9.16361 3.96367 9.16361 4.32773 9.52767 4.32773H10.9839C11.348 4.32773 11.348 3.96367 11.348 3.96367C11.348 3.85445 11.348 3.59961 10.9839 3.59961H9.52767Z" fill="white"/>
</svg>
