<svg width="38" height="38" viewBox="0 0 38 38" fill="none" xmlns="http://www.w3.org/2000/svg">
<path d="M9.20117 14.9042L7.89088 19.8474C6.80995 23.9253 6.26948 25.9643 7.20052 27.5671C8.13157 29.1697 10.1706 29.7102 14.2485 30.7911L16.7201 31.4462C20.7981 32.5272 22.837 33.0676 24.4398 32.1366C26.0424 31.2055 26.5829 29.1665 27.6638 25.0886L28.9741 20.1454" stroke="#1F9276" stroke-width="1.5" stroke-linecap="round" stroke-linejoin="round"/>
<path d="M8.62024 12.105C8.86517 11.181 8.98763 10.719 9.32719 10.4407C9.54964 10.2584 9.83328 10.1332 10.1496 10.0778C10.6324 9.99313 11.2099 10.1462 12.3649 10.4524L28.4304 14.7108C29.5854 15.017 30.1629 15.17 30.5404 15.4828C30.7877 15.6876 30.9721 15.9369 31.075 16.2054C31.2322 16.6154 31.1097 17.0774 30.8648 18.0014C30.6199 18.9254 30.4974 19.3873 30.1578 19.6657C29.9354 19.848 29.6517 19.9732 29.3355 20.0286C28.8526 20.1133 28.2751 19.9602 27.1201 19.6541L11.0546 15.3956C9.89961 15.0894 9.32211 14.9364 8.94462 14.6236C8.69732 14.4188 8.51293 14.1695 8.40999 13.901C8.25287 13.491 8.37532 13.029 8.62024 12.105Z" stroke="#1F9276" stroke-width="1.5" stroke-linejoin="round"/>
<path d="M14.0361 6.64381C14.3592 5.42503 15.6091 4.6989 16.8279 5.02196L17.2693 5.13896C19.9018 5.83677 21.4703 8.53658 20.7725 11.1691L20.3981 12.5815L16.9555 11.669C14.7617 11.0875 13.4546 8.83762 14.0361 6.64381Z" stroke="#1F9276" stroke-width="1.5" stroke-linejoin="round"/>
<path d="M28.8651 10.5747C29.1881 9.35593 28.462 8.10602 27.2432 7.78296L26.8018 7.66595C24.1693 6.96815 21.4695 8.53659 20.7717 11.1692L20.3973 12.5815L23.8399 13.494C26.0337 14.0755 28.2836 12.7685 28.8651 10.5747Z" stroke="#1F9276" stroke-width="1.5" stroke-linejoin="round"/>
<path d="M19.0879 17.5248L15.4846 31.1187" stroke="#1F9276" stroke-width="1.5" stroke-linecap="round" stroke-linejoin="round"/>
</svg>
