<svg width="18" height="18" viewBox="0 0 18 18" fill="none" xmlns="http://www.w3.org/2000/svg">
<path d="M9 17C4.58172 17 1 13.4182 1 9C1 6.76597 1.91572 4.74582 3.3923 3.29442M9 17C8.2296 16.4291 8.35256 15.7644 8.73904 15.0998C9.33328 14.0779 9.33328 14.0779 9.33328 12.7155C9.33328 11.3531 10.1429 10.7143 13 11.2857C14.2838 11.5425 15.2193 9.76872 16.8858 10.3544M9 17C12.9566 17 16.2424 14.1277 16.8858 10.3544M3.3923 3.29442C4.07173 3.36612 4.45214 3.73011 5.08397 4.39773C6.28352 5.66522 7.48304 5.77098 8.2828 5.34848C9.48232 4.71474 8.47432 3.68824 9.88216 3.13038C10.7453 2.78841 10.9098 1.89279 10.5013 1.14063M3.3923 3.29442C4.83596 1.87537 6.81575 1 9 1C9.51312 1 10.015 1.04831 10.5013 1.14063M16.8858 10.3544C16.9609 9.91416 17 9.46168 17 9C17 5.09486 14.2019 1.84324 10.5013 1.14063" stroke="#1F9276" stroke-width="1.5" stroke-linejoin="round"/>
</svg>
