<svg width="20" height="20" viewBox="0 0 20 20" fill="none" xmlns="http://www.w3.org/2000/svg">
<path d="M10.3322 2.79004C15.1065 1.16245 17.4936 0.348662 18.7776 1.63261C20.0615 2.91657 19.2477 5.30372 17.6202 10.078L16.5118 13.3292C15.2619 16.9958 14.6369 18.8291 13.6066 18.9808C13.3297 19.0216 13.043 18.9971 12.7689 18.9091C11.7497 18.5819 11.2109 16.6489 10.1333 12.783C9.89426 11.9255 9.77476 11.4967 9.50256 11.1692C9.42356 11.0742 9.33596 10.9866 9.24096 10.9076C8.91346 10.6354 8.48466 10.5159 7.62721 10.2769C3.76127 9.19931 1.82829 8.66051 1.50105 7.64128C1.41307 7.36725 1.38852 7.08054 1.42931 6.80356C1.58103 5.77333 3.41435 5.14835 7.08096 3.89839L10.3322 2.79004Z" stroke="#1F9276"/>
</svg>
