<svg xmlns="http://www.w3.org/2000/svg" width="28" height="31" viewBox="0 0 28 31" fill="none">
  <path d="M16.8712 16.5465L19.4901 13.8803C20.2976 13.0578 21.7065 13.729 21.5592 14.8828C21.353 16.499 20.6351 18.039 19.4693 19.2053C18.0788 20.6215 16.2294 21.4015 14.2622 21.4015C12.295 21.4015 10.4468 20.6215 9.0551 19.2053C7.66343 17.789 6.89888 15.9053 6.89888 13.9015C6.89888 11.8978 7.66466 10.0153 9.0551 8.59781C10.2001 7.41031 11.712 6.67906 13.2988 6.46906C14.4303 6.31906 15.0893 7.75406 14.283 8.57656L11.6654 11.244C11.6654 11.244 11.6605 11.2478 11.6593 11.249C10.2246 12.7115 10.2246 15.0903 11.6593 16.5528C13.0951 18.0153 15.4305 18.0153 16.8663 16.5528C16.8688 16.5503 16.87 16.5478 16.8712 16.5465ZM23.1742 24.0965C25.9146 21.5778 27.6523 17.9478 27.6523 13.9015C27.6523 12.994 27.5615 12.1078 27.3922 11.2503C27.2302 10.4316 26.2582 10.1078 25.6778 10.6978L24.4309 11.9665C24.1094 12.294 23.9192 12.7453 23.956 13.2065C23.9744 13.4353 23.9854 13.6665 23.9854 13.9003C23.9854 19.4228 19.5895 23.9003 14.1677 23.9003C8.71025 23.9078 4.40517 19.3815 4.33399 13.9003C4.3929 8.36906 8.77529 3.83782 14.2536 3.90532C14.6733 3.92032 15.5863 3.90407 16.2233 3.25532C16.8602 2.60657 17.2971 2.16158 17.2971 2.16158C17.8567 1.59158 17.5916 0.59158 16.816 0.429081C14.526 -0.0509178 12.0299 0.0578318 9.4429 1.01908C4.10696 3.00407 0.651117 8.11781 0.652344 13.9053C0.652344 17.949 2.26368 21.5253 5.26177 24.2403L2.79261 28.2352C2.43181 28.819 2.60362 29.5902 3.17673 29.959C3.74125 30.324 4.50581 30.1565 4.86906 29.5677L7.26091 25.6978C9.28213 26.9277 11.631 27.6515 14.1517 27.6515C16.7461 27.6602 19.133 26.8765 21.2107 25.6128L23.6553 29.5677C24.0186 30.1565 24.7831 30.324 25.3476 29.959C25.9207 29.5915 26.0938 28.819 25.7318 28.2352L23.1742 24.0965ZM26.4411 5.92281C26.2509 5.45532 25.8029 5.15157 25.3071 5.15157H22.8527V2.65157C22.8527 2.14658 22.5533 1.69033 22.0955 1.49658C21.6353 1.30283 21.1088 1.40908 20.7578 1.76783L18.3034 4.26782C18.0727 4.50282 17.9438 4.82032 17.9438 5.15157V8.38406L13.3945 13.0178C13.1724 13.244 13.035 13.5565 13.035 13.9015C13.035 14.5915 13.5848 15.1515 14.2622 15.1515C14.6009 15.1515 14.9077 15.0115 15.1298 14.7853L19.6791 10.1516H22.8527C23.1779 10.1516 23.4909 10.0203 23.7203 9.7853L26.1748 7.28531C26.5258 6.92781 26.6313 6.39031 26.4411 5.92281Z" fill="#A97E1C"/>
</svg>