<svg width="26" height="31" viewBox="0 0 26 31" fill="none" xmlns="http://www.w3.org/2000/svg">
<path d="M4.42649 5.84785C3.99757 5.84785 3.5812 5.6291 3.34667 5.23533L2.60296 3.98528C2.25055 3.3915 2.44619 2.62522 3.04317 2.27271C3.63763 1.92144 4.40768 2.11645 4.76135 2.71147L5.50506 3.96153C5.85747 4.5553 5.66182 5.32158 5.06485 5.6741C4.86419 5.79285 4.64471 5.84785 4.42649 5.84785ZM12.6524 12.6519C11.2691 12.6519 10.1441 13.7732 10.1441 15.152C10.1441 16.5308 11.2691 17.6521 12.6524 17.6521C14.0358 17.6521 15.1607 16.5308 15.1607 15.152C15.1607 13.7732 14.0358 12.6519 12.6524 12.6519ZM24.178 17.9946C23.117 19.3797 19.1489 23.9024 12.6524 23.9024C6.15596 23.9024 2.42487 19.8284 1.10802 18.0759C-0.173718 16.3708 -0.17121 14.0057 1.11429 12.3244C2.17655 10.9356 6.14969 6.40163 12.6524 6.40163C19.0686 6.40163 22.8537 10.4843 24.1831 12.2394C25.4723 13.9419 25.4698 16.3083 24.178 17.9946ZM17.669 15.152C17.669 12.3944 15.4191 10.1518 12.6524 10.1518C9.88579 10.1518 7.63585 12.3944 7.63585 15.152C7.63585 17.9096 9.88579 20.1522 12.6524 20.1522C15.4191 20.1522 17.669 17.9096 17.669 15.152ZM13.9066 2.65147V1.40142C13.9066 0.711391 13.3447 0.151367 12.6524 0.151367C11.9601 0.151367 11.3983 0.711391 11.3983 1.40142V2.65147C11.3983 3.3415 11.9601 3.90152 12.6524 3.90152C13.3447 3.90152 13.9066 3.3415 13.9066 2.65147ZM21.9582 5.23408L22.7019 3.98403C23.0543 3.39025 22.8587 2.62397 22.2617 2.27146C21.6672 1.92019 20.8972 2.1152 20.5435 2.71022L19.7998 3.96028C19.4474 4.55405 19.643 5.32033 20.24 5.67285C20.8257 6.02161 21.6033 5.8341 21.9582 5.23408ZM22.2617 28.0313C22.8574 27.6788 23.0543 26.9125 22.7019 26.3187L21.9582 25.0687C21.6045 24.4736 20.8357 24.2786 20.24 24.6299C19.6443 24.9812 19.4474 25.7487 19.7998 26.3425L20.5435 27.5925C20.8984 28.1913 21.676 28.3788 22.2617 28.0313ZM13.9066 28.9013V27.6513C13.9066 26.9612 13.3447 26.4012 12.6524 26.4012C11.9601 26.4012 11.3983 26.9612 11.3983 27.6513V28.9013C11.3983 29.5913 11.9601 30.1514 12.6524 30.1514C13.3447 30.1514 13.9066 29.5913 13.9066 28.9013ZM4.76135 27.5925L5.50506 26.3425C5.85747 25.7487 5.66182 24.9824 5.06485 24.6299C4.46788 24.2774 3.70034 24.4736 3.34667 25.0687L2.60296 26.3187C2.25055 26.9125 2.44619 27.6788 3.04317 28.0313C3.62885 28.38 4.40642 28.1925 4.76135 27.5925Z" fill="white"/>
</svg>
