<svg xmlns="http://www.w3.org/2000/svg" width="31" height="31" viewBox="0 0 31 31" fill="none">
  <path d="M1.90234 30.1514C1.57082 30.1514 1.25288 30.0197 1.01846 29.7853C0.78404 29.5508 0.652344 29.2329 0.652344 28.9014V5.15137C0.652344 3.82528 1.17913 2.55352 2.11681 1.61583C3.05449 0.678151 4.32626 0.151367 5.65234 0.151367L14.4023 0.151367C15.7284 0.151367 17.0002 0.678151 17.9379 1.61583C18.8756 2.55352 19.4023 3.82528 19.4023 5.15137V11.4014C19.4023 12.7274 18.8756 13.9992 17.9379 14.9369C17.0002 15.8746 15.7284 16.4014 14.4023 16.4014H3.15234V28.9014C3.15234 29.2329 3.02065 29.5508 2.78623 29.7853C2.55181 30.0197 2.23386 30.1514 1.90234 30.1514ZM25.6523 5.15137H21.9023V11.4014C21.9004 13.3899 21.1095 15.2964 19.7035 16.7025C18.2974 18.1086 16.3909 18.8994 14.4023 18.9014H13.8473C14.2828 19.6589 14.9097 20.2886 15.6653 20.7274C16.4209 21.1662 17.2786 21.3986 18.1523 21.4014H25.6523C26.9784 21.4014 28.2502 20.8746 29.1879 19.9369C30.1256 18.9992 30.6523 17.7274 30.6523 16.4014V10.1514C30.6523 8.82528 30.1256 7.55351 29.1879 6.61583C28.2502 5.67815 26.9784 5.15137 25.6523 5.15137Z" fill="white"/>
</svg>