<svg width="26" height="26" viewBox="0 0 26 26" fill="none" xmlns="http://www.w3.org/2000/svg">
<circle cx="13" cy="13" r="13" fill="#33A485"/>
<path d="M13 20.5C17.1421 20.5 20.5 17.1421 20.5 13C20.5 8.85786 17.1421 5.5 13 5.5C8.85786 5.5 5.5 8.85786 5.5 13C5.5 14.0342 5.7093 15.0194 6.08786 15.9158C6.29708 16.4111 6.4017 16.6588 6.41465 16.846C6.4276 17.0332 6.3725 17.2391 6.26231 17.6509L5.5 20.5L8.34908 19.7377C8.76091 19.6275 8.96683 19.5724 9.15401 19.5854C9.34121 19.5983 9.58889 19.7029 10.0843 19.9121C10.9806 20.2907 11.9658 20.5 13 20.5Z" stroke="white" stroke-linejoin="round"/>
<path d="M10.4411 13.283L11.0943 12.4717C11.3696 12.1298 11.7099 11.8115 11.7366 11.3562C11.7433 11.2412 11.6624 10.7249 11.5006 9.69239C11.437 9.28661 11.0581 9.25 10.73 9.25C10.3024 9.25 10.0885 9.25 9.87621 9.34698C9.60786 9.46956 9.33234 9.81423 9.27188 10.103C9.22404 10.3315 9.25959 10.4889 9.33069 10.8038C9.63267 12.1411 10.3411 13.4618 11.4396 14.5604C12.5381 15.6589 13.8589 16.3674 15.1962 16.6693C15.5111 16.7404 15.6685 16.776 15.897 16.7281C16.1858 16.6677 16.5304 16.3922 16.653 16.1238C16.75 15.9114 16.75 15.6977 16.75 15.27C16.75 14.9418 16.7134 14.563 16.3076 14.4994C15.2751 14.3375 14.7588 14.2567 14.6438 14.2634C14.1885 14.2901 13.8702 14.6304 13.5283 14.9057L12.717 15.5589" stroke="white"/>
</svg>
