<svg width="26" height="26" viewBox="0 0 26 26" fill="none" xmlns="http://www.w3.org/2000/svg">
<circle cx="13" cy="13" r="13" fill="#33A485"/>
<path fill-rule="evenodd" clip-rule="evenodd" d="M8.88636 12.25C8.15304 12.25 8 12.3939 8 13.0833V14.3333C8 15.0228 8.15304 15.1666 8.88636 15.1666H10.6591V20.1667C10.6591 20.8561 10.8121 21 11.5455 21H13.3182C14.0515 21 14.2045 20.8561 14.2045 20.1667V15.1666H16.195C16.7512 15.1666 16.8946 15.065 17.0473 14.5623L17.4272 13.3123C17.6889 12.451 17.5276 12.25 16.5749 12.25H14.2045V10.1667C14.2045 9.70643 14.6014 9.33333 15.0909 9.33333H17.6136C18.3469 9.33333 18.5 9.18944 18.5 8.5V6.83333C18.5 6.14389 18.3469 6 17.6136 6H15.0909C12.6433 6 10.6591 7.86548 10.6591 10.1667V12.25H8.88636Z" stroke="white" stroke-linejoin="round"/>
</svg>
