<svg width="26" height="26" viewBox="0 0 26 26" fill="none" xmlns="http://www.w3.org/2000/svg">
<circle cx="13" cy="13" r="13" fill="#33A485"/>
<path d="M5.08203 13C5.08203 9.26809 5.08203 7.40212 6.2414 6.24274C7.40077 5.08337 9.26675 5.08337 12.9987 5.08337C16.7306 5.08337 18.5966 5.08337 19.756 6.24274C20.9154 7.40212 20.9154 9.26809 20.9154 13C20.9154 16.732 20.9154 18.598 19.756 19.7574C18.5966 20.9167 16.7306 20.9167 12.9987 20.9167C9.26675 20.9167 7.40077 20.9167 6.2414 19.7574C5.08203 18.598 5.08203 16.732 5.08203 13Z" stroke="white" stroke-linejoin="round"/>
<path d="M16.75 13C16.75 15.0711 15.0711 16.75 13 16.75C10.9289 16.75 9.25 15.0711 9.25 13C9.25 10.9289 10.9289 9.25 13 9.25C15.0711 9.25 16.75 10.9289 16.75 13Z" stroke="white"/>
<path d="M17.5895 8.41663H17.582" stroke="white" stroke-width="2" stroke-linecap="round" stroke-linejoin="round"/>
</svg>
