<svg width="24" height="24" viewBox="0 0 24 24" fill="none" xmlns="http://www.w3.org/2000/svg">
    <g clip-path="url(#clip0_5840_22403)">
    <path d="M15.462 12.3986C15.462 13.4526 14.149 15.1626 12.034 16.8596C11.993 16.8926 11.931 16.8916 11.89 16.8596C9.775 15.1616 8.462 13.4516 8.462 12.3976C8.462 11.5846 9.023 10.9216 9.712 10.9216C10.282 10.9216 10.962 11.1086 10.962 11.9986C10.962 12.5516 11.41 12.9986 11.962 12.9986C12.514 12.9986 12.962 12.5516 12.962 11.9986C12.962 11.1076 13.642 10.9216 14.212 10.9216C14.901 10.9216 15.462 11.5846 15.462 12.3986ZM24 9.72359V18.9996C24 21.7566 21.757 23.9996 19 23.9996H5C2.243 23.9996 0 21.7566 0 18.9996V9.72359C0 8.05859 0.824 6.50959 2.204 5.57859L9.203 0.855594C10.902 -0.290406 13.098 -0.290406 14.797 0.855594L20 4.36659V1.99959C20 1.44659 20.447 0.999594 21 0.999594C21.553 0.999594 22 1.44659 22 1.99959V5.73459C23.252 6.67559 24 8.14459 24 9.72359ZM17.462 12.3986C17.462 10.4826 16.004 8.92259 14.212 8.92259C13.306 8.92259 12.528 9.20659 11.962 9.69759C11.395 9.20659 10.618 8.92259 9.712 8.92259C7.92 8.92259 6.462 10.4826 6.462 12.3986C6.462 14.6036 8.733 16.8896 10.639 18.4196C11.022 18.7276 11.492 18.8806 11.962 18.8806C12.432 18.8806 12.902 18.7276 13.286 18.4186C15.191 16.8896 17.463 14.6036 17.463 12.3976L17.462 12.3986Z" fill="#4B5563"/>
    </g>
    <defs>
    <clipPath id="clip0_5840_22403">
    <rect width="24" height="24" fill="white"/>
    </clipPath>
    </defs>
    </svg>
    