<svg width="18" height="17" viewBox="0 0 18 17" fill="none" xmlns="http://www.w3.org/2000/svg">
<path d="M11.6012 1.8098L5.68757 4.64846C5.23245 4.86692 4.74616 4.92166 4.25044 4.8106C3.92602 4.73793 3.76379 4.70159 3.63316 4.68668C2.01105 4.50144 1 5.78526 1 7.2616V8.07173C1 9.54809 2.01105 10.8319 3.63316 10.6467C3.76379 10.6317 3.92603 10.5954 4.25044 10.5228C4.74616 10.4116 5.23245 10.4664 5.68757 10.6849L11.6012 13.5236C12.9586 14.1752 13.6373 14.501 14.3941 14.247C15.1508 13.9931 15.4106 13.4481 15.9301 12.3582C17.3566 9.36551 17.3566 5.96787 15.9301 2.97507C15.4106 1.88521 15.1508 1.34027 14.3941 1.08631C13.6373 0.832355 12.9586 1.15817 11.6012 1.8098Z" stroke="#1F9276" stroke-width="1.5" stroke-linecap="round" stroke-linejoin="round"/>
<path d="M9.88802 13.0001V13.4445C9.88802 14.5859 9.88802 15.1566 9.68891 15.4788C9.4234 15.9084 8.93798 16.1512 8.43495 16.1057C8.05771 16.0718 7.60118 15.7293 6.68802 15.0445L5.62135 14.2445C4.75249 13.5929 4.55469 13.1972 4.55469 12.1112V10.7778" stroke="#1F9276" stroke-width="1.5" stroke-linecap="round" stroke-linejoin="round"/>
<path d="M5 10.3333V5" stroke="#1F9276" stroke-width="1.5" stroke-linecap="round" stroke-linejoin="round"/>
</svg>
