<svg width="17" height="17" viewBox="0 0 17 17" fill="none" xmlns="http://www.w3.org/2000/svg">
<path fill-rule="evenodd" clip-rule="evenodd" d="M12.2468 4.9181L7.56549 9.59936L6.54287 8.57701C6.23416 8.26804 5.73326 8.26804 5.42455 8.57701L3.31552 10.686C3.00681 10.9945 3.00681 11.4959 3.31552 11.8044C3.62396 12.1131 4.12539 12.1131 4.43383 11.8044L5.98371 10.2548L7.00633 11.2771C7.31504 11.5861 7.81594 11.5861 8.12465 11.2771L13.3653 6.03668L13.8607 6.53177C14.0869 6.75797 14.427 6.82572 14.7225 6.7034C15.018 6.58081 15.2107 6.2924 15.2107 5.97262V3.86358C15.2107 3.42675 14.8567 3.07269 14.4199 3.07269H12.3108C11.991 3.07269 11.7026 3.2654 11.58 3.56093C11.4577 3.85646 11.5255 4.19655 11.7517 4.42274L12.2468 4.9181ZM14.4199 7.29076C14.21 7.29076 14.0089 7.37407 13.8607 7.52249C13.7123 7.67065 13.629 7.8718 13.629 8.08165C13.629 9.27326 13.629 12.1626 13.629 13.3542C13.629 13.5641 13.7123 13.7652 13.8607 13.9134C14.0089 14.0618 14.21 14.1451 14.4199 14.1451C14.6297 14.1451 14.8308 14.0618 14.979 13.9134C15.1274 13.7652 15.2107 13.5641 15.2107 13.3542C15.2107 12.1626 15.2107 9.27326 15.2107 8.08165C15.2107 7.8718 15.1274 7.67065 14.979 7.52249C14.8308 7.37407 14.6297 7.29076 14.4199 7.29076Z" fill="white"/>
<path fill-rule="evenodd" clip-rule="evenodd" d="M12.3104 8.34534C12.1005 8.34534 11.8994 8.42864 11.7512 8.57707C11.6028 8.72523 11.5195 8.92638 11.5195 9.13622C11.5195 10.1465 11.5195 12.3441 11.5195 13.3543C11.5195 13.5641 11.6028 13.7653 11.7512 13.9135C11.8994 14.0619 12.1005 14.1452 12.3104 14.1452C12.5202 14.1452 12.7214 14.0619 12.8695 13.9135C13.018 13.7653 13.1013 13.5641 13.1013 13.3543V9.13622C13.1013 8.92638 13.018 8.72523 12.8695 8.57707C12.7214 8.42864 12.5202 8.34534 12.3104 8.34534ZM10.2013 10.4544C9.76451 10.4544 9.41045 10.8084 9.41045 11.2453V13.3543C9.41045 13.7911 9.76451 14.1452 10.2013 14.1452C10.6382 14.1452 10.9922 13.7911 10.9922 13.3543V11.2453C10.9922 10.8084 10.6382 10.4544 10.2013 10.4544ZM5.98327 11.5089C5.54644 11.5089 5.19238 11.8629 5.19238 12.2998V13.3543C5.19238 13.7911 5.54644 14.1452 5.98327 14.1452C6.4201 14.1452 6.77416 13.7911 6.77416 13.3543V12.2998C6.77416 11.8629 6.4201 11.5089 5.98327 11.5089Z" fill="white"/>
<path d="M3.87487 14.1451C4.31167 14.1451 4.66576 13.791 4.66576 13.3542C4.66576 12.9174 4.31167 12.5634 3.87487 12.5634C3.43808 12.5634 3.08398 12.9174 3.08398 13.3542C3.08398 13.791 3.43808 14.1451 3.87487 14.1451Z" fill="white"/>
<path fill-rule="evenodd" clip-rule="evenodd" d="M8.09265 12.0361C7.65581 12.0361 7.30176 12.3902 7.30176 12.827V13.3548C7.30176 13.7914 7.65554 14.1452 8.09211 14.1452H8.09265C8.52948 14.1452 8.88353 13.7911 8.88353 13.3543V12.827C8.88353 12.3902 8.52948 12.0361 8.09265 12.0361Z" fill="white"/>
<path fill-rule="evenodd" clip-rule="evenodd" d="M1.7655 16.2542H15.4742C15.9108 16.2542 16.2651 15.8999 16.2651 15.4633C16.2651 15.0267 15.9108 14.6724 15.4742 14.6724H2.55639V1.75457C2.55639 1.318 2.20207 0.963684 1.7655 0.963684C1.32893 0.963684 0.974609 1.318 0.974609 1.75457V15.4633C0.974609 15.9001 1.32866 16.2542 1.7655 16.2542Z" fill="white"/>
<path fill-rule="evenodd" clip-rule="evenodd" d="M6.51117 0.963684C4.61963 0.963684 3.08398 2.49933 3.08398 4.39087C3.08398 6.28241 4.61963 7.81805 6.51117 7.81805C8.40271 7.81805 9.93835 6.28241 9.93835 4.39087C9.93835 2.49933 8.40271 0.963684 6.51117 0.963684ZM6.24754 2.54546C5.66518 2.54546 5.19302 3.01762 5.19302 3.59998C5.19302 4.18233 5.66518 4.6545 6.24754 4.6545V5.70901C5.95623 5.70901 5.72028 5.47306 5.72028 5.18175C5.72028 5.03623 5.60217 4.91812 5.45665 4.91812C5.31113 4.91812 5.19302 5.03623 5.19302 5.18175C5.19302 5.76411 5.66518 6.23627 6.24754 6.23627V6.4999C6.24754 6.64542 6.36564 6.76353 6.51117 6.76353C6.65669 6.76353 6.7748 6.64542 6.7748 6.4999V6.23627C7.35715 6.23627 7.82931 5.76411 7.82931 5.18175C7.82931 4.5994 7.35715 4.12724 6.7748 4.12724V3.07272C7.06611 3.07272 7.30205 3.30867 7.30205 3.59998C7.30205 3.7455 7.42016 3.86361 7.56568 3.86361C7.71121 3.86361 7.82931 3.7455 7.82931 3.59998C7.82931 3.01762 7.35715 2.54546 6.7748 2.54546V2.28183C6.7748 2.13631 6.65669 2.0182 6.51117 2.0182C6.36564 2.0182 6.24754 2.13631 6.24754 2.28183V2.54546ZM6.7748 4.6545V5.70901C7.06611 5.70901 7.30205 5.47306 7.30205 5.18175C7.30205 4.89044 7.06611 4.6545 6.7748 4.6545ZM6.24754 3.07272C5.95623 3.07272 5.72028 3.30867 5.72028 3.59998C5.72028 3.89129 5.95623 4.12724 6.24754 4.12724V3.07272Z" fill="white"/>
</svg>
