<svg width="12" height="16" viewBox="0 0 12 16" fill="none" xmlns="http://www.w3.org/2000/svg">
    <path
        d="M6 15.3209C4.40919 15.3193 2.88399 14.6866 1.75911 13.5618C0.634239 12.4369 0.00158843 10.9117 0 9.32087C0 7.76087 1.2 5.27587 3.552 1.93287C3.83126 1.54389 4.19912 1.22699 4.62516 1.0084C5.05119 0.789797 5.52316 0.675781 6.002 0.675781C6.48084 0.675781 6.95281 0.789797 7.37884 1.0084C7.80488 1.22699 8.17274 1.54389 8.452 1.93287C10.805 5.27587 12 7.76087 12 9.32087C11.9984 10.9117 11.3658 12.4369 10.2409 13.5618C9.11601 14.6866 7.59081 15.3193 6 15.3209Z"
        fill="#4B5563" />
</svg>
    