<svg width="32" height="34" viewBox="0 0 32 34" fill="none" xmlns="http://www.w3.org/2000/svg">
<path d="M14.87 0.919201C14.9694 -0.306368 16.764 -0.306371 16.8634 0.919198L17.4899 8.6449C17.5617 9.53061 18.6668 9.88967 19.2455 9.21533L24.2934 3.33334C25.0941 2.40025 26.5461 3.45514 25.9061 4.50506L21.8719 11.1235C21.4094 11.8823 22.0923 12.8223 22.9569 12.6169L30.4981 10.8253C31.6944 10.5411 32.249 12.248 31.1141 12.7212L23.9601 15.7044C23.1399 16.0464 23.1399 17.2083 23.9601 17.5504L31.1141 20.5335C32.2489 21.0068 31.6944 22.7136 30.4981 22.4294L22.9569 20.6379C22.0923 20.4325 21.4094 21.3725 21.8719 22.1312L25.9061 28.7497C26.5461 29.7996 25.0941 30.8545 24.2934 29.9214L19.2455 24.0394C18.6668 23.3651 17.5617 23.7241 17.4899 24.6099L16.8634 32.3356C16.764 33.5611 14.9694 33.5611 14.87 32.3356L14.2435 24.6099C14.1717 23.7241 13.0666 23.3651 12.4879 24.0394L7.44004 29.9214C6.63927 30.8545 5.18732 29.7996 5.82729 28.7497L9.86152 22.1312C10.324 21.3725 9.64107 20.4325 8.77651 20.6379L1.23534 22.4294C0.0390444 22.7136 -0.515551 21.0068 0.619324 20.5335L7.77332 17.5504C8.59348 17.2083 8.59349 16.0464 7.77332 15.7044L0.619328 12.7212C-0.515548 12.248 0.0390406 10.5411 1.23534 10.8253L8.77651 12.6169C9.64106 12.8223 10.324 11.8823 9.86152 11.1235L5.8273 4.50506C5.18732 3.45514 6.63926 2.40024 7.44003 3.33334L12.4879 9.21533C13.0666 9.88967 14.1717 9.53062 14.2435 8.6449L14.87 0.919201Z" fill="#1D50A3"/>
</svg>
