<svg width="24" height="24" viewBox="0 0 24 24" fill="none" xmlns="http://www.w3.org/2000/svg">
    <g clip-path="url(#clip0_5840_22400)">
    <path d="M21.001 8H5.001C4.142 8 3.329 7.627 2.766 7C2.844 6.912 2.928 6.829 3.017 6.75C3.431 6.384 3.471 5.752 3.105 5.338C2.739 4.923 2.107 4.884 1.693 5.25C1.268 5.625 0.915 6.063 0.643 6.548C0.226 7.289 0 8.132 0 9V19C0 21.757 2.243 24 5 24H21C22.654 24 24 22.654 24 21V11C24 9.346 22.655 8 21.001 8ZM18.501 17.5C17.673 17.5 17.001 16.828 17.001 16C17.001 15.172 17.673 14.5 18.501 14.5C19.329 14.5 20.001 15.172 20.001 16C20.001 16.828 19.329 17.5 18.501 17.5ZM15.001 3C16.658 3 18.001 4.343 18.001 6H21.001C22.111 6.003 23.152 6.381 24.001 7.033V3C24.001 1.343 22.658 0 21.001 0H9.001C7.344 0 6.001 1.343 6.001 3V6H12.001C12.001 4.343 13.344 3 15.001 3ZM21.001 1.5C21.829 1.5 22.501 2.172 22.501 3C22.501 3.828 21.829 4.5 21.001 4.5C20.173 4.5 19.501 3.828 19.501 3C19.501 2.172 20.173 1.5 21.001 1.5ZM9.001 4.5C8.173 4.5 7.501 3.828 7.501 3C7.501 2.172 8.173 1.5 9.001 1.5C9.829 1.5 10.501 2.172 10.501 3C10.501 3.828 9.829 4.5 9.001 4.5Z" fill="#4B5563"/>
    </g>
    <defs>
    <clipPath id="clip0_5840_22400">
    <rect width="24" height="24" fill="white"/>
    </clipPath>
    </defs>
    </svg>
    