<svg xmlns="http://www.w3.org/2000/svg" width="22" height="19" viewBox="0 0 22 19" fill="none">
  <path d="M1 3.5L7.91302 7.41697C10.4616 8.861 11.5384 8.861 14.087 7.41697L21 3.5" stroke="#1F9276" stroke-width="1.5" stroke-linejoin="round"/>
  <path d="M1.01577 10.9756C1.08114 14.0412 1.11383 15.5739 2.24496 16.7094C3.37608 17.8448 4.95033 17.8843 8.09883 17.9634C10.0393 18.0122 11.9607 18.0122 13.9012 17.9634C17.0497 17.8843 18.6239 17.8448 19.7551 16.7094C20.8862 15.5739 20.9189 14.0412 20.9842 10.9756C21.0053 9.9899 21.0053 9.0101 20.9842 8.0244C20.9189 4.95886 20.8862 3.42609 19.7551 2.29066C18.6239 1.15523 17.0497 1.11568 13.9012 1.03657C11.9607 0.987811 10.0393 0.987811 8.09882 1.03656C4.95033 1.11566 3.37608 1.15521 2.24495 2.29065C1.11382 3.42608 1.08114 4.95885 1.01576 8.0244C0.99474 9.0101 0.99475 9.9899 1.01577 10.9756Z" stroke="#1F9276" stroke-width="1.5" stroke-linejoin="round"/>
</svg>