<svg width="26" height="12" viewBox="0 0 26 12" fill="none" xmlns="http://www.w3.org/2000/svg">
<path d="M23.7057 8.50983L25.2188 11.6043L17.9982 11.6043L19.5113 8.50983L23.7057 8.50983Z" fill="white"/>
<path d="M10.4439 0.257813L15.2377 0.257813L16.9668 3.35232L8.71478 3.35232L10.4439 0.257813Z" fill="white"/>
<path d="M15.3853 4.38379L19.5798 4.38379L21.0928 7.47829L13.8723 7.4783L15.3853 4.38379Z" fill="white"/>
<path d="M15.2377 8.50983L16.9668 11.6043L8.71478 11.6043L10.444 8.50983L15.2377 8.50983Z" fill="white"/>
<path d="M6.17058 8.50983L7.68359 11.6043L0.463079 11.6043L1.97609 8.50983L6.17058 8.50983Z" fill="white"/>
<path d="M11.8086 7.47829L4.58808 7.4783L6.10105 4.38379L10.2956 4.38379L11.8086 7.47829Z" fill="white"/>
</svg>
