<svg width="24" height="24" viewBox="0 0 24 24" fill="none" xmlns="http://www.w3.org/2000/svg">
    <g clip-path="url(#clip0_5840_22296)">
        <path
            d="M16.7925 17.8349C17.3785 18.4209 17.3785 19.3709 16.7925 19.9559C16.2065 20.5419 15.2565 20.5419 14.6715 19.9559L8.8555 14.1399L7.4415 15.5539L12.8345 20.9469C13.4205 21.5329 13.4205 22.4829 12.8345 23.0679C12.2485 23.6539 11.2985 23.6539 10.7135 23.0679L6.0405 18.3949C3.0835 15.5099 0.0625 11.6659 0.0625 8.00391C0.0625 4.14391 2.9795 1.00391 6.5625 1.00391C8.3355 1.00391 9.6935 1.66591 10.7275 2.40091L7.0885 6.00891C6.4265 6.66991 6.0625 7.54991 6.0625 8.48491C6.0625 9.41991 6.4265 10.2989 7.0865 10.9589C7.7475 11.6209 8.6265 11.9849 9.5625 11.9849C9.9885 11.9849 10.3995 11.8999 10.7875 11.7559L16.7925 17.8349ZM14.4845 8.52891L12.3925 10.6069L18.5025 16.6249C19.0885 17.2109 20.0385 17.2109 20.6235 16.6249C21.5195 15.7289 20.7525 14.7369 20.7525 14.7369L14.4835 8.52891H14.4845ZM17.5205 1.06191C15.8865 1.07191 14.3345 1.78191 13.1385 2.89591L8.5015 7.50191C7.9155 8.08791 7.9155 9.03791 8.5015 9.62291C9.0875 10.2089 10.0375 10.2089 10.6225 9.62291L14.5285 5.74291L22.2625 13.4209C23.4535 11.4989 24.0615 9.69891 24.0615 8.06191C24.0615 4.20191 21.1035 1.06191 17.5195 1.06191H17.5205Z"
            fill="#4B5563" />
    </g>
    <defs>
        <clipPath id="clip0_5840_22296">
            <rect width="24" height="24" fill="white" />
        </clipPath>
    </defs>
</svg>
    