<svg width="20" height="19" viewBox="0 0 20 19" fill="none" xmlns="http://www.w3.org/2000/svg">
<path d="M14.6501 18.9946C13.4976 18.9333 11.9883 18.2208 10.0338 16.8731L9.99735 16.8488L9.96367 16.8731C8.00918 18.2217 6.50076 18.9342 5.34645 18.9955L5.18442 19C2.68373 19 2.36511 16.6217 3.62046 12.4742L3.66962 12.3138L3.57859 12.2463C-1.9344 8.06809 -1.01496 5.17633 5.90358 4.97994L6.08747 4.97544L6.19215 4.68176C7.26999 1.6819 8.40062 0.100896 9.85807 0.00450429L10.0001 0C11.524 0 12.6919 1.58551 13.8071 4.68176L13.9109 4.97544L14.0966 4.97994C21.0151 5.17633 21.9346 8.06809 16.4207 12.2454L16.3278 12.3129L16.3779 12.4733C17.6068 16.538 17.3246 18.9027 14.9614 18.9955L14.813 18.9982L14.6501 18.9946Z" fill="#FFF5E3"/>
</svg>
