<svg width="28" height="28" viewBox="0 0 28 28" fill="none" xmlns="http://www.w3.org/2000/svg">
<path d="M13.7303 0L13.8926 0.00962496L13.9737 0.0206251L14.0576 0.0385002L14.2102 0.08525C14.3156 0.124112 14.4158 0.175836 14.5086 0.23925L14.6516 0.352L15.0022 0.65175C17.776 2.95565 21.2816 4.19279 24.8871 4.14013L25.3573 4.12637C25.6648 4.11235 25.968 4.20187 26.2186 4.38061C26.4691 4.55935 26.6524 4.81698 26.7392 5.11225C27.4149 7.41067 27.6216 9.82146 27.3472 12.2014C27.0727 14.5813 26.3227 16.8817 25.1416 18.966C23.9606 21.0503 22.3726 22.876 20.472 24.3344C18.5715 25.7929 16.3971 26.8545 14.0782 27.456C13.8519 27.5147 13.6143 27.5147 13.3879 27.456C11.0689 26.8546 8.89441 25.7932 6.99369 24.3348C5.09298 22.8764 3.50483 21.0508 2.32363 18.9664C1.14242 16.8821 0.39227 14.5816 0.117743 12.2016C-0.156783 9.82164 0.0499198 7.41076 0.725569 5.11225C0.812346 4.81698 0.995674 4.55935 1.24621 4.38061C1.49675 4.20187 1.8 4.11235 2.10744 4.12637C5.87146 4.29843 9.56416 3.05936 12.4626 0.65175L12.8242 0.342375L12.9562 0.23925C13.0489 0.175836 13.1492 0.124112 13.2546 0.08525L13.4086 0.0385002C13.4625 0.0254839 13.5171 0.01584 13.5722 0.00962496L13.7303 0ZM18.8316 10.0279C18.7039 9.90003 18.5522 9.79861 18.3853 9.72942C18.2184 9.66022 18.0395 9.62461 17.8588 9.62461C17.6781 9.62461 17.4991 9.66022 17.3322 9.72942C17.1653 9.79861 17.0136 9.90003 16.8859 10.0279L12.3581 14.5544L10.5802 12.7779L10.4509 12.6637C10.1746 12.4501 9.82724 12.3496 9.47947 12.3827C9.1317 12.4158 8.80958 12.5801 8.57854 12.8421C8.34749 13.1041 8.22484 13.4443 8.23551 13.7935C8.24617 14.1427 8.38934 14.4747 8.63594 14.7221L11.3859 17.4721L11.5152 17.5863C11.7797 17.7915 12.1101 17.8931 12.4443 17.8721C12.7784 17.8511 13.0934 17.7089 13.3302 17.4721L18.8302 11.9721L18.9443 11.8429C19.1495 11.5783 19.2512 11.248 19.2302 10.9138C19.2092 10.5797 19.0669 10.2646 18.8302 10.0279H18.8316Z" fill="#009A24"/>
</svg>
